<?xml version="1.0" standalone="no"?>
<!DOCTYPE svg PUBLIC "-//W3C//DTD SVG 20010904//EN"
 "http://www.w3.org/TR/2001/REC-SVG-20010904/DTD/svg10.dtd">
<svg version="1.0" xmlns="http://www.w3.org/2000/svg"
 width="169.000000pt" height="169.000000pt" viewBox="0 0 169.000000 169.000000"
 preserveAspectRatio="xMidYMid meet">
<metadata>
Created by potrace 1.14, written by Peter Selinger 2001-2017
</metadata>
<g transform="translate(0.000000,169.000000) scale(0.100000,-0.100000)"
fill="#000000" stroke="none">
<path d="M693 1455 c-68 -35 -127 -100 -170 -190 -40 -84 -46 -132 -21 -148
13 -9 27 -3 69 26 29 20 54 35 56 34 1 -2 -2 -41 -8 -88 -13 -97 -5 -240 16
-322 16 -60 67 -171 85 -182 11 -7 13 -124 4 -238 l-7 -77 -63 0 c-62 0 -64
-1 -64 -25 l0 -25 215 0 215 0 0 25 c0 24 -3 25 -55 25 l-55 0 0 81 c0 73 2
80 18 74 9 -4 32 -11 50 -17 23 -6 42 -24 65 -58 18 -27 39 -50 47 -50 17 0
283 51 289 56 2 2 -26 49 -63 106 l-66 103 46 3 c42 3 45 5 40 25 -3 13 -68
187 -146 387 -89 232 -150 377 -168 400 -16 19 -51 49 -77 65 -41 25 -61 31
-124 33 -66 3 -83 0 -128 -23z m203 -46 c34 -12 84 -59 103 -98 18 -36 249
-628 259 -665 5 -18 0 -19 -84 -13 -214 14 -291 81 -330 284 -21 112 -19 159
9 177 12 8 34 18 50 21 27 7 32 19 21 48 -4 11 -13 13 -38 7 -70 -16 -116 -67
-116 -130 0 -49 38 -223 59 -273 44 -103 149 -173 279 -185 l67 -7 57 -85 c31
-47 57 -87 57 -90 1 -6 -152 -40 -175 -40 -20 0 -64 79 -71 125 -5 42 -8 45
-36 45 -28 0 -29 -2 -24 -34 5 -33 5 -35 -18 -26 -132 50 -217 138 -266 276
-30 82 -38 298 -15 403 12 59 13 77 3 83 -18 12 -44 10 -84 -7 -20 -8 -38 -13
-41 -11 -6 7 41 86 73 125 64 75 169 104 261 70z m-46 -1045 l0 -94 -35 0 -35
0 0 121 0 120 35 -27 35 -26 0 -94z"/>
<path d="M781 1348 c-31 -16 -35 -29 -17 -53 12 -16 16 -17 30 -6 9 8 26 10
45 6 24 -5 30 -3 36 15 4 12 3 26 -2 31 -16 16 -68 20 -92 7z"/>
</g>
</svg>
